<svg width="280" height="280" viewBox="0 0 280 280" fill="none" xmlns="http://www.w3.org/2000/svg">
<mask id="mask0_172_12" style="mask-type:alpha" maskUnits="userSpaceOnUse" x="0" y="0" width="280" height="280">
<rect width="280" height="280" fill="#D9D9D9"/>
</mask>
<g mask="url(#mask0_172_12)">
<path d="M84.5834 256.667C74.0834 256.667 65.139 252.972 57.7501 245.583C50.3612 238.194 46.6667 229.25 46.6667 218.75V61.25C46.6667 50.7772 50.3612 41.8396 57.7501 34.4371C65.139 27.0346 74.0834 23.3333 84.5834 23.3333H233.333V198.333C228.278 198.333 224.097 200.375 220.792 204.458C217.486 208.542 215.833 213.306 215.833 218.75C215.833 224.194 217.486 228.958 220.792 233.042C224.097 237.125 228.278 239.167 233.333 239.167V256.667H84.5834ZM84.4493 239.167H203.875C202.125 236.25 200.764 233.042 199.792 229.542C198.82 226.042 198.333 222.444 198.333 218.75C198.333 214.861 198.82 211.215 199.792 207.812C200.764 204.41 202.222 201.25 204.167 198.333H84.4697C78.9066 198.333 74.132 200.319 70.1459 204.289C66.1598 208.258 64.1667 213.078 64.1667 218.75C64.1667 224.389 66.1598 229.201 70.1459 233.187C74.132 237.174 78.8998 239.167 84.4493 239.167ZM64.1667 186.667C67.0834 184.722 70.2276 183.264 73.5992 182.292C76.969 181.319 80.6304 180.833 84.5834 180.833H215.833V40.8333H84.5834C78.9445 40.8333 74.132 42.8186 70.1459 46.7892C66.1598 50.7578 64.1667 55.578 64.1667 61.25V186.667ZM101.792 151.667H116.083L123.375 130.958H156.333L163.625 151.667H177.917L147 70H132.417L101.792 151.667ZM127.458 119L139.417 85.1667H140.292L152.25 119H127.458Z" fill="#2E8555"/>
</g>
</svg>
