<svg width="280" height="280" viewBox="0 0 280 280" fill="none" xmlns="http://www.w3.org/2000/svg">
<mask id="mask0_172_24" style="mask-type:alpha" maskUnits="userSpaceOnUse" x="0" y="0" width="280" height="280">
<rect width="280" height="280" fill="#D9D9D9"/>
</mask>
<g mask="url(#mask0_172_24)">
<path d="M52.4999 256.667C47.6874 256.667 43.5681 254.953 40.142 251.525C36.7139 248.098 34.9999 243.979 34.9999 239.167V98.2917C31.6944 97.125 28.9235 95.0454 26.6874 92.0529C24.4513 89.0604 23.3333 85.5983 23.3333 81.6667V40.8333C23.3333 36.0208 25.0473 31.9005 28.4753 28.4725C31.9014 25.0464 36.0208 23.3333 40.8333 23.3333H239.167C243.979 23.3333 248.099 25.0464 251.527 28.4725C254.954 31.9005 256.667 36.0208 256.667 40.8333V81.6667C256.667 85.5983 255.549 89.0604 253.312 92.0529C251.076 95.0454 248.305 97.125 245 98.2917V239.167C245 243.979 243.287 248.098 239.861 251.525C236.433 254.953 232.312 256.667 227.5 256.667H52.4999ZM52.4999 99.1667V239.167H227.5V99.1667H52.4999ZM40.8333 81.6667H239.167V40.8333H40.8333V81.6667ZM105 157.5H175V140H105V157.5Z" fill="#2E8555"/>
</g>
</svg>
