<svg width="280" height="280" viewBox="0 0 280 280" fill="none" xmlns="http://www.w3.org/2000/svg">
<mask id="mask0_172_18" style="mask-type:alpha" maskUnits="userSpaceOnUse" x="0" y="0" width="280" height="280">
<rect width="280" height="280" fill="#D9D9D9"/>
</mask>
<g mask="url(#mask0_172_18)">
<path d="M75.8332 204.167H239.167V40.8333H221.667V121.917L194.542 105.292L167.417 121.917V40.8333H75.8332V204.167ZM75.8332 221.667C71.1666 221.667 67.0833 219.917 63.5833 216.417C60.0833 212.917 58.3333 208.833 58.3333 204.167V40.8333C58.3333 36.1667 60.0833 32.0833 63.5833 28.5833C67.0833 25.0833 71.1666 23.3333 75.8332 23.3333H239.167C243.833 23.3333 247.917 25.0833 251.417 28.5833C254.917 32.0833 256.667 36.1667 256.667 40.8333V204.167C256.667 208.833 254.917 212.917 251.417 216.417C247.917 219.917 243.833 221.667 239.167 221.667H75.8332ZM40.8333 256.667C36.1666 256.667 32.0833 254.917 28.5833 251.417C25.0833 247.917 23.3333 243.833 23.3333 239.167V58.3333H40.8333V239.167H221.667V256.667H40.8333Z" fill="#2E8555"/>
</g>
</svg>
